<?xml version="1.0" encoding="UTF-8" standalone="no"?>
<!-- Created with Inkscape (http://www.inkscape.org/) -->

<svg
   width="177.9261mm"
   height="184.23048mm"
   viewBox="0 0 177.9261 184.23048"
   version="1.1"
   id="svg1"
   xml:space="preserve"
   inkscape:version="1.3.2 (091e20e, 2023-11-25, custom)"
   sodipodi:docname="fieldmesh logo.svg"
   inkscape:export-filename="meshtactic.png"
   inkscape:export-xdpi="142.75589"
   inkscape:export-ydpi="142.75589"
   xmlns:inkscape="http://www.inkscape.org/namespaces/inkscape"
   xmlns:sodipodi="http://sodipodi.sourceforge.net/DTD/sodipodi-0.dtd"
   xmlns="http://www.w3.org/2000/svg"
   xmlns:svg="http://www.w3.org/2000/svg"><sodipodi:namedview
     id="namedview1"
     pagecolor="#ffffff"
     bordercolor="#000000"
     borderopacity="0.25"
     inkscape:showpageshadow="2"
     inkscape:pageopacity="0.0"
     inkscape:pagecheckerboard="0"
     inkscape:deskcolor="#d1d1d1"
     inkscape:document-units="mm"
     inkscape:zoom="0.85208122"
     inkscape:cx="303.96163"
     inkscape:cy="232.95901"
     inkscape:window-width="3440"
     inkscape:window-height="1369"
     inkscape:window-x="-8"
     inkscape:window-y="-8"
     inkscape:window-maximized="1"
     inkscape:current-layer="layer1" /><defs
     id="defs1"><rect
       x="239.4138"
       y="157.262"
       width="559.80579"
       height="163.12999"
       id="rect4" /><rect
       x="221.80984"
       y="203.03229"
       width="381.41904"
       height="154.91481"
       id="rect3" /><rect
       x="-98.582152"
       y="-220.63624"
       width="322.73919"
       height="133.79006"
       id="rect11" /><rect
       x="56.68008"
       y="49.482609"
       width="198.83012"
       height="92.667435"
       id="rect2" /><rect
       x="129.55447"
       y="422.85138"
       width="299.5947"
       height="116.05921"
       id="rect1" /></defs><g
     inkscape:label="Layer 1"
     inkscape:groupmode="layer"
     id="layer1"
     transform="translate(-9.1394641,-8.9457393)"><path
       id="path1"
       style="fill:#000000"
       d="m 97.872561,8.9874664 c -0.159722,0.057693 -0.334583,0.1753231 -0.525032,0.35295 -0.185368,0.1728877 -0.747878,0.6821666 -1.250053,1.1317136 -0.502176,0.449548 -0.934742,0.839081 -0.961182,0.865581 -0.02644,0.0265 -0.372285,0.329172 -0.768945,0.672827 -0.39666,0.343654 -0.743022,0.649685 -0.769462,0.679545 -0.04687,0.05292 -3.945832,3.31989 -4.807975,4.028694 -5.234056,4.303139 -12.193842,9.392432 -17.981849,13.149069 -16.673439,10.821697 -31.96125,17.034435 -45.122827,18.336865 -0.727154,0.07196 -1.387187,0.184741 -1.466577,0.250631 -0.121485,0.100823 -0.144399,0.510148 -0.144177,2.584338 8.52e-4,7.968115 1.107832,19.355717 2.887162,29.697412 1.01779,5.915526 2.566191,12.999861 4.028178,18.430916 0.268757,0.998392 0.488859,1.853012 0.488859,1.899112 0,0.0461 -1.325495,0.0842 -2.945556,0.0842 -2.796914,0 -2.961489,0.01 -3.26285,0.19585 -0.203803,0.12596 -0.371402,0.34103 -0.467672,0.601 -0.08246,0.22267 -2.597771,8.60503 -5.58984,18.62729 -6.665104,22.32547 -7.971136,26.6961 -9.15293,30.62707 -0.5088016,1.69242 -0.9229468,3.23202 -0.9203568,3.42149 0.00259,0.18949 0.081503,0.46189 0.1756999,0.60565 0.3804462,0.58064 -1.4443804,0.54054 24.2719039,0.54054 h 23.562386 l 1.318265,1.75493 c 5.531975,7.36433 11.091935,13.51543 17.630966,19.50579 6.064608,5.55572 12.812642,10.65332 19.995678,15.1045 1.097016,0.6798 1.773934,1.04076 1.950786,1.04076 0.638805,0 7.631829,-4.60823 12.236459,-8.06359 10.15586,-7.62105 19.65112,-17.1963 27.35751,-27.58798 l 1.29811,-1.75079 23.63628,-0.002 c 20.93638,-0.002 23.66858,-0.0186 23.91844,-0.1478 0.32479,-0.16795 0.57361,-0.59096 0.57361,-0.97513 0,-0.14597 -3.53237,-12.102 -7.84965,-26.56892 -7.56379,-25.34575 -7.86128,-26.31532 -8.17211,-26.61646 l -0.32247,-0.31213 h -3.0148 c -1.65793,0 -3.03918,-0.0249 -3.06958,-0.0553 -0.0304,-0.0304 0.029,-0.34459 0.13178,-0.69764 0.36877,-1.26604 1.5288,-5.877948 2.05052,-8.15247 3.12177,-13.610066 4.95102,-27.830008 5.21312,-40.526208 l 0.0625,-3.03444 -0.26871,-0.21084 c -0.17704,-0.139263 -0.40315,-0.211815 -0.66405,-0.21239 -0.21764,-4.8e-4 -0.95835,-0.0662 -1.64589,-0.146245 -16.91185,-1.968949 -37.1727,-11.844869 -58.7535,-28.638075 -3.98951,-3.104445 -8.88994,-7.232734 -11.66027,-9.8231729 -0.339363,-0.3173275 -0.696973,-0.6146967 -0.794783,-0.6609415 -0.130498,-0.061699 -0.275392,-0.063895 -0.435116,-0.0062 z m 0.149862,9.4526526 0.319877,0.271302 c 0.176037,0.149078 0.943892,0.829456 1.70636,1.512052 3.99121,3.57315 9.33637,7.876376 14.1273,11.372949 16.08148,11.736831 31.07955,19.0566 44.08981,21.5191 1.48579,0.28122 3.36902,0.544573 5.55315,0.77618 l 0.55294,0.05891 -5.2e-4,0.73794 c -0.001,1.317928 -0.18771,5.778159 -0.33848,8.094596 -0.61269,9.413447 -2.02348,19.252746 -4.14341,28.896428 -0.48854,2.222383 -1.86189,7.795505 -2.20969,8.966894 l -0.14986,0.50488 H 98.060147 38.590392 l -0.09147,-0.21652 C 38.321803,100.51537 37.154952,95.977482 36.517131,93.227285 33.730983,81.213767 32.0126,68.024297 31.797006,57.000555 l -0.05943,-3.042191 0.375171,-0.05426 c 0.206467,-0.02985 0.678299,-0.08047 1.048515,-0.112655 2.532086,-0.220083 6.568341,-0.984655 9.696566,-1.837097 11.501118,-3.13406 24.718563,-9.956027 38.239526,-19.736263 5.666086,-4.098501 11.632641,-8.912723 15.842444,-12.782683 z m 31.844567,92.992771 c 0.61126,0 1.14611,0.20943 1.60455,0.62839 0.48901,0.38903 0.73381,1.01784 0.73381,1.88567 0,0.83791 -0.2448,1.4662 -0.73381,1.88516 -0.45844,0.41895 -0.99329,0.62838 -1.60455,0.62838 -0.67238,0 -1.23758,-0.20943 -1.69602,-0.62838 -0.45844,-0.41896 -0.68781,-1.04725 -0.68781,-1.88516 0,-0.86783 0.22937,-1.49664 0.68781,-1.88567 0.45844,-0.41896 1.02364,-0.62839 1.69602,-0.62839 z m -91.596992,1.0325 h 24.526668 v 3.54603 H 52.61951 v 28.50421 H 48.493146 V 116.01142 H 38.269998 Z m 74.955632,2.4691 h 2.38383 v 5.52111 h 7.10603 v 3.05252 h -7.10603 v 13.91492 c 0,1.46634 0.35177,2.55859 1.05472,3.2768 0.73351,0.68828 1.66538,1.0325 2.79621,1.0325 0.61126,0 1.23765,-0.0446 1.87947,-0.13436 0.64182,-0.1197 1.16176,-0.23945 1.55908,-0.35915 v 3.00756 c -0.42788,0.20948 -1.03936,0.37381 -1.834,0.49351 -0.79463,0.14963 -1.55885,0.22428 -2.29236,0.22428 -1.28365,0 -2.47523,-0.20943 -3.57549,-0.62839 -1.06971,-0.44888 -1.9409,-1.21195 -2.61328,-2.28926 -0.67239,-1.07731 -1.00873,-2.58843 -1.00873,-4.53358 v -14.00483 h -3.48402 v -1.88567 l 3.53002,-1.57096 z m -13.84515,5.07204 c 1.25308,0 2.46061,0.13478 3.622,0.40411 1.16139,0.2394 2.10869,0.53852 2.8422,0.89762 l -1.23765,3.2768 c -0.73351,-0.26933 -1.58927,-0.52334 -2.56728,-0.76274 -0.97802,-0.23941 -1.89498,-0.35915 -2.750738,-0.35915 -4.828944,0 -7.243485,3.03726 -7.243485,9.1121 0,2.90276 0.580621,5.13237 1.742012,6.68848 1.191955,1.52619 2.949247,2.28927 5.27203,2.28927 1.344771,0 2.521441,-0.13478 3.530021,-0.40411 1.03914,-0.26933 1.98695,-0.59851 2.84272,-0.98754 v 3.50108 c -0.8252,0.41895 -1.74216,0.7331 -2.75074,0.94258 -0.97801,0.2394 -2.17011,0.35915 -3.576009,0.35915 -2.169969,0 -4.110859,-0.4339 -5.822384,-1.30173 -1.680961,-0.86783 -3.010373,-2.2141 -3.988387,-4.03955 -0.947451,-1.82544 -1.421102,-4.15977 -1.421102,-7.00267 0,-2.96261 0.504509,-5.37158 1.513086,-7.22695 1.008577,-1.85537 2.36833,-3.21719 4.079855,-4.08502 1.742087,-0.86783 3.713319,-1.30173 5.913851,-1.30173 z m 50.38297,0 c 1.25308,0 2.46061,0.13478 3.622,0.40411 1.16139,0.2394 2.1087,0.53852 2.84221,0.89762 l -1.23765,3.2768 c -0.73352,-0.26933 -1.58928,-0.52334 -2.56729,-0.76274 -0.97801,-0.23941 -1.89497,-0.35915 -2.75074,-0.35915 -4.82894,0 -7.24348,3.03726 -7.24348,9.1121 0,2.90276 0.58062,5.13237 1.74201,6.68848 1.19196,1.52619 2.94925,2.28927 5.27203,2.28927 1.34477,0 2.52144,-0.13478 3.53002,-0.40411 1.03914,-0.26933 1.98696,-0.59851 2.84272,-0.98754 v 3.50108 c -0.8252,0.41895 -1.74216,0.7331 -2.75074,0.94258 -0.97801,0.2394 -2.17011,0.35915 -3.57601,0.35915 -2.16997,0 -4.11086,-0.4339 -5.82238,-1.30173 -1.68096,-0.86783 -3.01037,-2.2141 -3.98839,-4.03955 -0.94745,-1.82544 -1.4211,-4.15977 -1.4211,-7.00267 0,-2.96261 0.50451,-5.37158 1.51309,-7.22695 1.00857,-1.85537 2.36833,-3.21719 4.07985,-4.08502 1.74209,-0.86783 3.71332,-1.30173 5.91385,-1.30173 z m -76.92657,0.045 c 2.995168,0 5.210682,0.64332 6.64714,1.93011 1.436458,1.28679 2.154907,3.33704 2.154907,6.15002 v 16.38401 h -2.934188 l -0.779281,-3.41168 h -0.183451 c -1.069703,1.31671 -2.200603,2.28922 -3.392558,2.91765 -1.161391,0.62843 -2.781372,0.94258 -4.859651,0.94258 -2.231095,0 -4.079928,-0.56816 -5.546949,-1.70532 -1.467021,-1.16709 -2.200382,-2.97784 -2.200382,-5.43171 0,-2.39403 0.962731,-4.23432 2.888196,-5.52111 1.925465,-1.31672 4.889769,-2.03521 8.893514,-2.15491 l 4.171838,-0.13436 v -1.4366 c 0,-2.005 -0.442793,-3.39637 -1.329118,-4.17443 -0.886325,-0.77805 -2.139624,-1.16737 -3.75946,-1.16737 -1.283644,0 -2.506085,0.19492 -3.667477,0.58395 -1.161391,0.3591 -2.246521,0.77796 -3.255098,1.25677 l -1.237651,-2.96261 c 1.069703,-0.56858 2.337915,-1.04758 3.804936,-1.43661 1.467021,-0.41895 2.99546,-0.62838 4.584733,-0.62838 z m 54.96719,0.40411 h 4.03438 v 24.06003 h -4.03438 z m -50.15353,12.29899 -3.622001,0.13487 c -3.056294,0.11971 -5.180267,0.5987 -6.372221,1.43661 -1.161392,0.83791 -1.742013,2.01985 -1.742013,3.54604 0,1.34663 0.412452,2.33417 1.237651,2.96261 0.855762,0.62843 1.940892,0.94257 3.255098,0.94257 2.07828,0 3.804714,-0.55364 5.180046,-1.66088 1.375332,-1.13716 2.06344,-2.87274 2.06344,-5.20691 z m 20.466968,23.01565 c 17.611672,0 32.021302,0.0201 32.021302,0.045 0,0.0249 -0.42889,0.56019 -0.95291,1.18959 -8.51779,10.23042 -18.58675,19.01268 -29.529985,25.75605 -0.766875,0.47256 -1.441817,0.88762 -1.500167,0.92242 -0.204581,0.12209 -4.877698,-2.88173 -8.273397,-5.31802 -8.270967,-5.9341 -15.832342,-12.97104 -22.574332,-21.00854 -0.665452,-0.7933 -1.210284,-1.47493 -1.210779,-1.51463 -4.95e-4,-0.0396 14.408589,-0.0718 32.020268,-0.0718 z" /><path
       style="fill:#52ff8e;fill-opacity:1;fill-rule:evenodd;stroke:#000000;stroke-width:3.82883"
       d="m 142.66896,377.97896 c -0.26783,-0.43335 -2.29063,-8.02443 -4.49513,-16.86907 -12.26531,-49.20965 -18.79166,-94.70636 -20.85865,-145.4107 l -0.61433,-15.06971 3.05299,-1.8e-4 c 10.90472,-6.3e-4 41.73169,-7.11104 60.80615,-14.02527 C 236.2948,166.4009 304.51434,123.47609 359.67363,73.902894 l 7.44744,-6.693215 1.99924,1.769352 c 65.70268,58.147479 132.21943,99.976479 189.98603,119.472549 18.32115,6.18335 45.74833,12.1779 55.71807,12.1779 h 2.35867 v 7.8876 c 0,10.0653 -1.4604,32.81263 -3.21914,50.14201 -3.49357,34.42295 -9.36802,68.02394 -18.04919,103.23871 l -4.15856,16.86907 H 367.45605 c -127.35046,0 -224.51061,-0.34055 -224.78709,-0.78791 z"
       id="path3"
       transform="matrix(0.26458333,0,0,0.26458333,0.89966911,0.85617977)" /><path
       style="fill:#52ff8e;fill-opacity:1;fill-rule:evenodd;stroke:#000000;stroke-width:3.82883"
       d="m 361.50418,686.96727 c -15.11061,-9.11183 -35.11194,-23.67105 -53.36248,-38.84321 -13.62106,-11.32354 -39.53671,-36.97333 -51.7144,-51.18387 l -8.4808,-9.89652 6.09943,-0.6782 c 3.35469,-0.37301 57.29673,-0.57544 119.8712,-0.44984 l 113.77175,0.22836 -7.40312,8.54699 c -23.84048,27.52414 -48.40016,50.4119 -76.85104,71.61934 -11.16597,8.32316 -34.48501,23.74839 -35.89619,23.74483 -0.50456,-10e-4 -3.22002,-1.39082 -6.03435,-3.08788 z"
       id="path4"
       transform="matrix(0.26458333,0,0,0.26458333,0.89966911,0.85617977)" /><path
       style="fill:#ffffff;fill-opacity:1;fill-rule:evenodd;stroke:#000000;stroke-width:4.99453"
       d="m 149.04682,457.70285 v -53.98547 h -19.36435 -19.36435 v -5.86798 -5.86799 h 45.77029 45.77028 v 5.86799 5.86798 h -18.77755 -18.77755 v 53.98547 53.98546 h -7.62838 -7.62839 z"
       id="path6"
       transform="matrix(0.26458333,0,0,0.26458333,9.1394641,8.9457393)" /><path
       style="fill:#ffffff;fill-opacity:1;fill-rule:evenodd;stroke:#000000;stroke-width:4.99453"
       d="m 221.71648,512.83153 c -13.26198,-2.19961 -20.76207,-9.80166 -21.8847,-22.18223 -1.70774,-18.83326 11.93718,-29.95529 38.40842,-31.30688 6.13204,-0.31309 13.39368,-0.84244 16.13696,-1.17633 l 4.98779,-0.60706 v -6.42057 c 0,-8.30846 -2.41594,-13.92147 -7.26436,-16.87747 -6.75621,-4.11915 -22.76635,-2.87367 -36.29811,2.82374 -1.4416,0.60697 -2.36149,-0.35405 -3.81419,-3.98471 -1.05293,-2.63153 -1.91442,-5.01499 -1.91442,-5.29659 0,-0.28159 4.35698,-1.9176 9.68218,-3.63558 7.30728,-2.35742 12.27296,-3.15459 20.24455,-3.24997 16.08238,-0.19242 24.96689,3.82632 30.23095,13.67441 2.53361,4.73991 2.64329,6.23934 2.9996,41.00791 l 0.36984,36.08811 h -5.28572 -5.28571 l -0.76285,-5.08702 c -1.30546,-8.70546 -1.99921,-8.88296 -9.15559,-2.34243 -8.34769,7.62932 -19.20589,10.59428 -31.39464,8.57267 z m 24.1521,-13.31111 c 10.01582,-4.70443 13.35594,-10.80321 13.44485,-24.54919 l 0.0515,-7.96394 -10.85578,0.67795 c -22.94201,1.43275 -31.13398,4.98173 -33.72699,14.61143 -1.27391,4.73094 -0.51436,11.31702 1.61822,14.03167 5.1697,6.58075 19.05206,8.08452 29.46818,3.19208 z"
       id="path7"
       transform="matrix(0.26458333,0,0,0.26458333,9.1394641,8.9457393)" /><path
       style="fill:#ffffff;fill-opacity:1;fill-rule:evenodd;stroke:#000000;stroke-width:4.99453"
       d="m 333.30156,512.88084 c -14.90287,-1.95257 -26.65441,-10.89594 -31.56578,-24.02276 -4.85606,-12.97898 -4.40467,-33.71686 1.00057,-45.96885 8.29352,-18.79879 31.65566,-27.0424 56.08099,-19.78886 l 5.87898,1.74587 -1.90761,5.36253 c -1.68601,4.73954 -2.24847,5.29796 -4.84161,4.80679 -15.71604,-2.97679 -18.25176,-3.18742 -23.86915,-1.9827 -8.42366,1.80655 -12.80129,4.96138 -16.68498,12.02435 -3.07239,5.58753 -3.44766,7.47981 -3.85075,19.4173 -0.6698,19.83565 3.02124,29.32616 13.35013,34.3263 6.9391,3.35916 20.75919,3.45182 30.38048,0.20369 l 6.65359,-2.24624 -0.34907,5.99803 -0.34907,5.99803 -5.86798,1.90432 c -7.68325,2.49343 -16.07359,3.26841 -24.05874,2.2222 z"
       id="path8"
       transform="matrix(0.26458333,0,0,0.26458333,9.1394641,8.9457393)" /><path
       style="fill:#ffffff;fill-opacity:1;fill-rule:evenodd;stroke:#000000;stroke-width:4.99453"
       d="m 408.29788,512.757 c -11.56996,-1.76444 -17.85046,-8.25871 -19.86119,-20.53721 -0.62484,-3.81558 -1.13913,-18.95211 -1.14287,-33.63675 l -0.007,-26.69933 h -6.45478 c -6.00774,0 -6.45478,-0.19257 -6.45478,-2.78059 0,-2.26872 1.2633,-3.32846 6.86261,-5.75682 l 6.86261,-2.97622 2.74505,-9.49995 c 2.7221,-9.42053 2.77756,-9.49994 6.63375,-9.49994 h 3.88871 v 10.56237 10.56238 h 13.49636 13.49637 v 4.69438 4.69439 h -13.49637 -13.49636 l 0.028,27.28613 c 0.0308,30.00469 0.68805,34.99341 5.20417,39.50032 2.80934,2.80361 3.8297,3.03929 12.99148,3.00074 l 9.94268,-0.0418 v 4.47187 c 0,3.56473 -0.53566,4.67068 -2.6406,5.4519 -4.17029,1.54775 -12.7166,2.1011 -18.59804,1.20417 z"
       id="path9"
       transform="matrix(0.26458333,0,0,0.26458333,9.1394641,8.9457393)" /><path
       style="fill:#ffffff;fill-opacity:1;fill-rule:evenodd;stroke:#000000;stroke-width:4.99453"
       d="m 449.48767,467.09162 v -44.59668 h 7.04158 7.04158 v 44.59668 44.59669 h -7.04158 -7.04158 z"
       id="path10"
       transform="matrix(0.26458333,0,0,0.26458333,9.1394641,8.9457393)" /><path
       style="fill:#ffffff;fill-opacity:1;fill-rule:evenodd;stroke:#000000;stroke-width:4.99453"
       d="m 523.42428,512.89275 c -8.39969,-1.08503 -16.12998,-4.57329 -22.11258,-9.97821 -17.42922,-15.74626 -16.72124,-57.36065 1.2374,-72.73257 7.55978,-6.4709 16.05594,-9.25772 28.50356,-9.34945 6.93841,-0.0511 12.85196,0.62714 17.23558,1.97687 l 6.6732,2.05471 -1.83549,5.38689 c -1.76106,5.16842 -1.98409,5.35546 -5.49961,4.61221 -19.69956,-4.16488 -27.87512,-3.12738 -35.51473,4.50693 -3.33664,3.33431 -5.44984,6.84781 -6.74818,11.21982 -2.42948,8.18094 -2.46158,24.7143 -0.0637,32.78895 2.20233,7.41605 8.47872,14.74566 14.26085,16.65394 5.70819,1.88387 19.60028,1.56513 26.74881,-0.61373 3.2274,-0.98371 6.26408,-1.79427 6.74819,-1.80126 0.48411,-0.007 0.88019,2.55559 0.88019,5.69463 v 5.70733 l -6.16138,1.83048 c -8.01714,2.38181 -16.32854,3.07891 -24.35214,2.04246 z"
       id="path11"
       transform="matrix(0.26458333,0,0,0.26458333,9.1394641,8.9457393)" /><rect
       style="fill:none;fill-opacity:1;fill-rule:evenodd;stroke:#000000;stroke-width:1.126"
       id="rect12"
       width="131.34752"
       height="39.435307"
       x="32.428028"
       y="107.68926"
       rx="0.91176224"
       ry="2.9885356" /><rect
       style="fill:#000000;fill-opacity:1;fill-rule:evenodd;stroke:#000000;stroke-width:1.126"
       id="rect13"
       width="129.79494"
       height="40.366848"
       x="32.738544"
       y="107.37875"
       rx="0.91176224"
       ry="2.9885356" /><path
       style="font-weight:bold;font-size:85.3333px;font-family:Gadugi;-inkscape-font-specification:'Gadugi Bold';white-space:pre;fill:#ffffff;fill-opacity:1;fill-rule:evenodd;stroke-width:5.37539"
       d="m 78.571894,143.78505 h -5.592898 v -20.07326 q 0,-3.25196 0.210391,-7.1824 h -0.140259 q -0.438317,3.0882 -0.788968,4.44514 l -5.890955,22.81052 h -4.628603 l -5.99615,-22.57657 q -0.245455,-0.91242 -0.788963,-4.67909 h -0.157794 q 0.227921,4.95983 0.227921,8.7031 v 18.55256 h -5.101983 v -33.54901 h 8.292916 l 5.137051,19.88609 q 0.61364,2.38632 0.894163,4.79605 h 0.105196 q 0.47338,-2.78403 0.999358,-4.84283 l 5.137052,-19.83931 h 8.082525 z m 20.793665,0 h -15.07804 v -33.54901 h 14.49946 v 6.15299 h -8.83643 v 7.46312 h 8.22279 v 6.12962 h -8.22279 v 7.67368 h 9.41501 z m 2.875341,-1.28676 v -7.48653 q 1.52534,1.70787 3.31366,2.5735 1.78833,0.84223 3.61172,0.84223 1.06949,0 1.85845,-0.25735 0.8065,-0.25734 1.33248,-0.70185 0.54351,-0.46791 0.8065,-1.07618 0.26299,-0.63169 0.26299,-1.35694 0,-0.9826 -0.42078,-1.75467 -0.42079,-0.77205 -1.15716,-1.42712 -0.71883,-0.65507 -1.71819,-1.26335 -0.99936,-0.60826 -2.15651,-1.23994 -2.94547,-1.63769 -4.40068,-4.00062 -1.43767,-2.36294 -1.43767,-5.70848 0,-2.62029 0.78896,-4.49191 0.78897,-1.89503 2.13898,-3.11159 1.36754,-1.21656 3.15587,-1.77806 1.78832,-0.58489 3.78704,-0.58489 1.96365,0 3.47145,0.32754 1.52534,0.30415 2.80522,0.95921 v 6.99523 q -0.63117,-0.58489 -1.38508,-1.0294 -0.73637,-0.44451 -1.52533,-0.72525 -0.78897,-0.30415 -1.57794,-0.44453 -0.77143,-0.14036 -1.47274,-0.14036 -0.96429,0 -1.75325,0.25735 -0.78897,0.23395 -1.33248,0.67847 -0.54351,0.44451 -0.84157,1.07617 -0.29805,0.60829 -0.29805,1.38034 0,0.84223 0.33312,1.52071 0.33312,0.65506 0.94676,1.26335 0.61364,0.58488 1.49027,1.16977 0.87663,0.56149 1.98118,1.16977 1.50781,0.84223 2.70002,1.80145 1.20975,0.9358 2.06885,2.12897 0.8591,1.19318 1.31494,2.73727 0.45585,1.52071 0.45585,3.5561 0,2.80744 -0.8065,4.72588 -0.78896,1.89502 -2.15651,3.08819 -1.36754,1.16977 -3.19093,1.68447 -1.80586,0.51469 -3.82211,0.51469 -2.06884,0 -3.94483,-0.4679 -1.85846,-0.46791 -3.226,-1.40374 z m 43.04253,1.28676 h -5.68056 V 130.12213 H 129.1885 v 13.66292 h -5.66303 v -33.54901 h 5.66303 v 13.38217 h 10.41437 v -13.38217 h 5.68056 z"
       id="text1"
       aria-label="MESH" /><text
       xml:space="preserve"
       transform="matrix(0.451849,0,0,0.451849,-137.82055,-22.015911)"
       id="text2"
       style="font-weight:bold;font-size:85.3333px;font-family:Gadugi;-inkscape-font-specification:'Gadugi Bold';text-align:center;white-space:pre;shape-inside:url(#rect4);display:inline;fill:#ffffff;fill-opacity:1;fill-rule:evenodd;stroke-width:11.0589"><tspan
         x="407.62895"
         y="234.12606"
         id="tspan2"><tspan
           style="fill:#000000"
           id="tspan1">FIELD</tspan></tspan></text></g></svg>
